# xmcd
#
# Track frame offsets:
#	150
#	26594
#	67012
#	86135
#	112793
#	146988
#	168793
#	188967
#	206633
#	228940
#
# Disc length: 3303 seconds
#
# Revision: 0
# Processed by: cddbd v1.5.1PL2 Copyright (c) Steve Scherf et al.
# Submitted via: audiograbber 1.82.01
#
DISCID=880ce50a
DTITLE=Hal Rugg - Slidin' For Scale
DYEAR=1900
DGENRE=Country
TTITLE0=Please Don't Leave Me Anymore
TTITLE1=Crazy
TTITLE2=Bubbles in My Beer
TTITLE3=Take Me As I Am
TTITLE4=Canadian Sunset
TTITLE5=Makin' Believe
TTITLE6=Down to My Last Cigarette
TTITLE7=Colombus Stockade Blues
TTITLE8=The Old Rugged Cross
TTITLE9=Back Home Again in Indiana
EXTD=
EXTT0=
EXTT1=
EXTT2=
EXTT3=
EXTT4=
EXTT5=
EXTT6=
EXTT7=
EXTT8=
EXTT9=
PLAYORDER=
